<svg width="32" height="32" viewBox="0 0 32 32" fill="none" xmlns="http://www.w3.org/2000/svg">
<path d="M29.3333 24.0068C29.3333 24.7402 28.7387 25.3335 28.0067 25.3335H17.3267C16.9748 25.3335 16.6374 25.1937 16.3886 24.9449C16.1398 24.6961 16 24.3587 16 24.0068C16 23.655 16.1398 23.3175 16.3886 23.0687C16.6374 22.8199 16.9748 22.6802 17.3267 22.6802H28.0067C28.74 22.6802 29.3333 23.2735 29.3333 24.0068Z" fill="black"/>
<path d="M29.3334 16C29.3334 16.7333 28.7387 17.3267 28.0067 17.3267H3.99335C3.6415 17.3267 3.30406 17.1869 3.05526 16.9381C2.80646 16.6893 2.66669 16.3519 2.66669 16C2.66669 15.6482 2.80646 15.3107 3.05526 15.0619C3.30406 14.8131 3.6415 14.6733 3.99335 14.6733H28.0067C28.74 14.6733 29.3334 15.268 29.3334 16Z" fill="black"/>
<path d="M28.0067 9.32008C28.3585 9.32008 28.696 9.18031 28.9448 8.93151C29.1936 8.68271 29.3334 8.34527 29.3334 7.99341C29.3334 7.64156 29.1936 7.30412 28.9448 7.05532C28.696 6.80652 28.3585 6.66675 28.0067 6.66675H11.9934C11.8191 6.66675 11.6466 6.70106 11.4857 6.76773C11.3247 6.83441 11.1785 6.93213 11.0553 7.05532C10.9321 7.17851 10.8343 7.32476 10.7677 7.48572C10.701 7.64668 10.6667 7.81919 10.6667 7.99341C10.6667 8.16763 10.701 8.34015 10.7677 8.50111C10.8343 8.66207 10.9321 8.80832 11.0553 8.93151C11.1785 9.0547 11.3247 9.15242 11.4857 9.21909C11.6466 9.28577 11.8191 9.32008 11.9934 9.32008H28.0067Z" fill="black"/>
</svg>
