<svg id="Layer_1" data-name="Layer 1" xmlns="http://www.w3.org/2000/svg" viewBox="0 0 185.7 56.36"><defs><style>.cls-1{fill:#1d2228;}.cls-2{fill:#1898ff;}.cls-3{fill:#fe5825;}</style></defs><path class="cls-1" d="M61.12,27a3,3,0,0,1,.94-.76,6.51,6.51,0,0,1,1.26-.49,6.85,6.85,0,0,1,1.92-.23,10.1,10.1,0,0,1,4.19.86,9.86,9.86,0,0,1,3.28,2.33,11.07,11.07,0,0,1,2.93,7.57,11.22,11.22,0,0,1-3,7.66,10.69,10.69,0,0,1-3.27,2.36,9.52,9.52,0,0,1-4,.87,6.8,6.8,0,0,1-2.15-.31,8.76,8.76,0,0,1-1.57-.68,7.23,7.23,0,0,1-1.34-1,2.31,2.31,0,0,1-.41,1,2.52,2.52,0,0,1-.82.68,3.32,3.32,0,0,1-1.59.31A4.14,4.14,0,0,1,56.26,47a3.75,3.75,0,0,1-1.12-.54,2.86,2.86,0,0,1-.83-.87A2.23,2.23,0,0,1,54,44.37V22.1a3.39,3.39,0,0,1,3.5-3.5,3.6,3.6,0,0,1,2.6,1,3.31,3.31,0,0,1,1,2.51Zm0,9.46A3.74,3.74,0,0,0,62.31,39a3.46,3.46,0,0,0,2.53,1A3.55,3.55,0,0,0,67.48,39a3.6,3.6,0,0,0,1.08-2.65,3.51,3.51,0,0,0-1.08-2.59,3.56,3.56,0,0,0-2.64-1.08,3.51,3.51,0,0,0-2.6,1.1A3.7,3.7,0,0,0,61.16,36.44Z" transform="translate(-1.18 -1.66)"/><path class="cls-1" d="M98.72,43.65A2.72,2.72,0,0,1,98.36,45a3.89,3.89,0,0,1-.92,1.1,4.1,4.1,0,0,1-1.29.74,4.42,4.42,0,0,1-1.51.27,2.79,2.79,0,0,1-1.63-.6,2.25,2.25,0,0,1-1-1.33,2.13,2.13,0,0,1-.42.5,4.19,4.19,0,0,1-.92.62,6.72,6.72,0,0,1-1.39.54,6.86,6.86,0,0,1-1.84.23,10.34,10.34,0,0,1-4.12-.81,10.08,10.08,0,0,1-3.27-2.24,10.38,10.38,0,0,1-2.18-3.41,11.58,11.58,0,0,1-.78-4.3A10.66,10.66,0,0,1,78,32.16a10.5,10.5,0,0,1,2.29-3.41,11.28,11.28,0,0,1,3.45-2.33,11.86,11.86,0,0,1,4.32-1,9.93,9.93,0,0,1,4.1.87,11.53,11.53,0,0,1,3.43,2.36,11,11,0,0,1,2.35,3.47,10.23,10.23,0,0,1,.88,4.19v.34c0,.13,0,.44,0,.91s0,1.19,0,2.13ZM84.25,36.3A3.67,3.67,0,0,0,87.92,40a3.65,3.65,0,0,0,2.65-1,3.5,3.5,0,0,0,1.07-2.58,3.07,3.07,0,0,0-.27-1.46,4.07,4.07,0,0,0-.83-1.21,3.6,3.6,0,0,0-1.21-.8,3.5,3.5,0,0,0-1.41-.3,3.55,3.55,0,0,0-2.6,1.08A3.62,3.62,0,0,0,84.25,36.3Z" transform="translate(-1.18 -1.66)"/><path class="cls-1" d="M108.27,35.36v8.29a3.43,3.43,0,0,1-1,2.51,3.4,3.4,0,0,1-2.54,1,3.82,3.82,0,0,1-2.57-.9,3.19,3.19,0,0,1-1.06-2.6V28.86a3.84,3.84,0,0,1,.79-2.5,2.8,2.8,0,0,1,2.35-1,2.16,2.16,0,0,1,1.08.25,3.17,3.17,0,0,1,.71.51,3.23,3.23,0,0,1,.54.72,3.16,3.16,0,0,1,.81-.72,5.7,5.7,0,0,1,1.21-.51,6.34,6.34,0,0,1,2-.25,3.62,3.62,0,0,1,2.55,1.07,3.47,3.47,0,0,1,1,2.56,3.31,3.31,0,0,1-1,2.51,3.58,3.58,0,0,1-2.6,1,2,2,0,0,0-1.52.8A3.17,3.17,0,0,0,108.27,35.36Z" transform="translate(-1.18 -1.66)"/><path class="cls-1" d="M119.07,22a3.45,3.45,0,0,1,1-2.51,3.4,3.4,0,0,1,2.54-1,3.82,3.82,0,0,1,2.57.9A3.23,3.23,0,0,1,126.2,22v1.7a4.16,4.16,0,0,1,1.5.27,4.25,4.25,0,0,1,1.23.74,3.46,3.46,0,0,1,1.17,2.58,3.19,3.19,0,0,1-1.19,2.53,4.09,4.09,0,0,1-2.71,1V43.65a3.33,3.33,0,0,1-1,2.51,3.62,3.62,0,0,1-2.6,1,3.39,3.39,0,0,1-3.5-3.5V30.84a3.86,3.86,0,0,1-2.64-1,3.15,3.15,0,0,1-1.12-2.53,3.56,3.56,0,0,1,1-2.58,3.63,3.63,0,0,1,2.73-1.05Z" transform="translate(-1.18 -1.66)"/><path class="cls-1" d="M136.68,39.22a2.62,2.62,0,0,0,.9,1.07,4.13,4.13,0,0,0,1.19.59,5.62,5.62,0,0,0,1.1.22l.58,0c.24,0,.52,0,.85,0l.92-.11a8.84,8.84,0,0,0,1.14-.25,4,4,0,0,0,1.37-.63,2.57,2.57,0,0,1,1.37-.49,2.52,2.52,0,0,1,1.94.79,3,3,0,0,1,.25,3.6,6.29,6.29,0,0,1-1.59,1.5,8.4,8.4,0,0,1-2,1,10.65,10.65,0,0,1-2.2.49,19.17,19.17,0,0,1-2.26.14,10.79,10.79,0,0,1-4.19-.81,11,11,0,0,1-3.43-2.24,10.44,10.44,0,0,1-2.33-3.41,10.68,10.68,0,0,1-.85-4.3,10.48,10.48,0,0,1,.83-4.19,10.63,10.63,0,0,1,2.28-3.41A11.28,11.28,0,0,1,136,26.42a11,11,0,0,1,8.3-.29,10,10,0,0,1,3.38,2,9.73,9.73,0,0,1,2.37,3.4,12.57,12.57,0,0,1,.95,4.84,2.83,2.83,0,0,1-2.83,2.83Zm7.62-5.51A1.22,1.22,0,0,0,144,33a2.92,2.92,0,0,0-.85-.72,6.12,6.12,0,0,0-1.26-.54,5,5,0,0,0-1.52-.22,4.52,4.52,0,0,0-2.8.76c-.67.51-1,1-1,1.44Z" transform="translate(-1.18 -1.66)"/><path class="cls-1" d="M159.72,35.36v8.29a3.43,3.43,0,0,1-1,2.51,3.4,3.4,0,0,1-2.54,1,3.82,3.82,0,0,1-2.57-.9,3.22,3.22,0,0,1-1.06-2.6V28.86a3.89,3.89,0,0,1,.79-2.5,2.82,2.82,0,0,1,2.35-1,2.16,2.16,0,0,1,1.08.25,2.77,2.77,0,0,1,.71.51,3.23,3.23,0,0,1,.54.72,3.16,3.16,0,0,1,.81-.72,5.7,5.7,0,0,1,1.21-.51,6.34,6.34,0,0,1,2-.25,3.67,3.67,0,0,1,2.56,1.07,3.51,3.51,0,0,1,1,2.56,3.35,3.35,0,0,1-1,2.51,3.62,3.62,0,0,1-2.6,1,2,2,0,0,0-1.53.8A3.17,3.17,0,0,0,159.72,35.36Z" transform="translate(-1.18 -1.66)"/><path class="cls-1" d="M167.79,28.19a9.55,9.55,0,0,1,18.35-3.72,9.54,9.54,0,0,1,.74,3.72,9.73,9.73,0,0,1-.45,3,8.94,8.94,0,0,1-1.3,2.58l-7.39,11.74a3.39,3.39,0,0,1-1.3,1.35,3.51,3.51,0,0,1-3.59-.09,3.61,3.61,0,0,1-1.37-1.28,3.23,3.23,0,0,1-.47-1.68,3.53,3.53,0,0,1,.54-1.84l3.36-5.82a4.85,4.85,0,0,1-2.66-.5A7.54,7.54,0,0,1,170,33.91a9,9,0,0,1-1.59-2.6A8.33,8.33,0,0,1,167.79,28.19Zm11.92-.13a2.37,2.37,0,0,0-2.42-2.42,2.36,2.36,0,0,0-2.42,2.42,2.37,2.37,0,0,0,2.42,2.42,2.39,2.39,0,0,0,2.42-2.42Z" transform="translate(-1.18 -1.66)"/><path class="cls-2" d="M42.36,28.33a22.15,22.15,0,0,0-4.24-6.77A19.87,19.87,0,0,0,31.66,17a20.08,20.08,0,0,0-8.27-1.68,13.52,13.52,0,0,0-3.81.45,12.22,12.22,0,0,0-2.48,1l-.05,0a1.22,1.22,0,0,1-1.8-1.08V8.56a6.52,6.52,0,0,0-2-5A7.13,7.13,0,0,0,8.08,1.66a6.67,6.67,0,0,0-6.9,6.9v44a4.42,4.42,0,0,0,.62,2.34A5.63,5.63,0,0,0,3.44,56.6a7.4,7.4,0,0,0,2.21,1.06A8,8,0,0,0,8,58H8a9,9,0,0,0,7.76-4.43l1.73-2.92a3,3,0,0,0-1.25-4.15l0,0a9.42,9.42,0,0,1-2.86-2.18,10.88,10.88,0,0,1-2-3.29,10.36,10.36,0,0,1-.77-4,12.14,12.14,0,0,1,.93-4.65,12.28,12.28,0,0,1,2.58-3.85,12.2,12.2,0,0,1,13.27-2.58,12,12,0,0,1,7.37,11.14,12.33,12.33,0,0,1-.57,3.77,11.22,11.22,0,0,1-1.64,3.26L23.85,58a18.74,18.74,0,0,0,7.68-1.72A20.79,20.79,0,0,0,38,51.64a22.3,22.3,0,0,0,4.38-23.31Z" transform="translate(-1.18 -1.66)"/><circle class="cls-3" cx="21.37" cy="35.03" r="5.26"/></svg>