<?xml version="1.0" encoding="utf-8"?>
<!-- Generator: Adobe Illustrator 24.2.0, SVG Export Plug-In . SVG Version: 6.00 Build 0)  -->
<svg version="1.1" id="Layer_1" xmlns="http://www.w3.org/2000/svg" xmlns:xlink="http://www.w3.org/1999/xlink" x="0px" y="0px"
	 viewBox="0 0 234.3 65.7" style="enable-background:new 0 0 234.3 65.7;" xml:space="preserve">
<style type="text/css">
	.st0{fill:#1E1E20;}
	.st1{fill:#14AEED;}
	.st2{fill:#FEFEFE;}
</style>
<g id="Group_3418" transform="translate(-54.898 -24.473)">
	<g id="Group_1" transform="translate(54.898 40.172)">
		<path id="Path_1" class="st0" d="M6.9,13c0-1.8,1.4-3.3,3.2-3.3c0.8,0,1.5,0.3,2.1,0.8c0.6,0.5,1,1.1,1.1,1.9l1.3,6.8
			c0.2,0.9,0.4,2.1,0.6,3.8l0.3,2h0.2l0.3-2c0.2-1.4,0.5-2.6,0.8-3.8l1.4-6.2c0.2-0.9,0.7-1.7,1.5-2.3c1.5-1.2,3.7-1.2,5.3,0
			c0.7,0.6,1.3,1.4,1.5,2.3l1.4,6.2c0.2,0.8,0.5,2.2,0.8,4.1l0.4,2.2h0.2l0.3-2.2c0.3-1.8,0.5-3.2,0.6-4.1l1.3-6.9
			c0.1-0.7,0.5-1.4,1.1-1.8c0.6-0.5,1.3-0.7,2-0.7c0.8,0,1.6,0.3,2.2,0.9c0.6,0.6,0.9,1.4,0.9,2.2c0,0,0,0.3-0.1,0.7l-3.2,13.2
			c-0.7,2.8-3.5,4.5-6.3,3.8c-0.7-0.2-1.4-0.5-2-1c-0.9-0.7-1.6-1.8-1.8-2.9l-1.1-4.9c-0.1-0.5-0.3-1.6-0.6-3.1
			c-0.1-0.5-0.2-1-0.2-1.6h-0.3l-0.3,1.6c-0.3,1.5-0.4,2.5-0.6,3.1l-1.1,5c-0.3,1.1-0.9,2.2-1.8,2.9c-0.9,0.7-2,1.1-3.2,1.1
			c-2.4,0-4.4-1.6-5-3.9L7,13.8C6.9,13.3,6.9,13.1,6.9,13z"/>
		<path id="Path_2" class="st0" d="M40,20.3c-0.1-2.9,0.9-5.7,2.9-7.8c2-2.1,4.8-3.1,7.7-3c2.8-0.1,5.5,0.9,7.5,2.9
			c1.8,1.7,2.8,4,2.8,6.5c0.1,0.9-0.2,1.8-0.7,2.5c-0.6,0.6-1.5,0.9-2.4,0.8H46.7c0.1,1.1,0.5,2.1,1.3,2.9c0.8,0.7,1.8,1.1,2.9,1.1
			c1.1,0,2.1-0.4,2.9-1.1c0.7-0.6,1.6-1,2.5-1.1c0.8,0,1.5,0.3,2,0.8c0.5,0.5,0.8,1.3,0.8,2c0,1-0.4,1.9-1.2,2.5
			c-0.8,0.7-1.8,1.2-2.9,1.4c-1.2,0.3-2.4,0.4-3.6,0.4c-3.5,0-6.3-1-8.4-2.9C41,26.1,39.9,23.3,40,20.3z M46.8,18h7.4
			c0-1-0.4-2.1-1.1-2.8c-1.4-1.4-3.7-1.4-5.1,0C47.2,16,46.8,17,46.8,18L46.8,18z"/>
		<path id="Path_3" class="st0" d="M64.5,27.6V4.5C64.5,2.6,66,1,68,1c1.9,0,3.5,1.6,3.5,3.5V13c1.1-2.2,3.5-3.5,5.9-3.3
			c2.4-0.1,4.8,0.9,6.3,2.9c1.5,2.1,2.3,4.7,2.2,7.4c0,3.4-0.8,6.1-2.5,8.1c-1.5,1.9-3.9,3-6.3,3c-2.3,0.1-4.6-0.9-6.1-2.7
			c-0.1,0.7-0.6,1.4-1.1,1.8c-0.6,0.5-1.3,0.7-2.1,0.7C65.9,30.8,64.5,29.4,64.5,27.6L64.5,27.6z M71.3,20.3c-0.1,1.6,0.2,3.2,1,4.6
			c1,1.5,3,1.9,4.5,0.9c0.4-0.2,0.7-0.6,0.9-0.9c0.8-1.4,1.2-2.9,1.1-4.5c0.1-1.5-0.2-3-1.1-4.4c-0.6-0.9-1.6-1.4-2.7-1.4
			c-1.1,0-2.2,0.5-2.8,1.4C71.5,17.2,71.1,18.7,71.3,20.3L71.3,20.3z"/>
		<path id="Path_4" class="st0" d="M97.6,31.1c-2.3,0.1-4.6-0.3-6.8-1.1c-1.7-0.7-2.6-1.9-2.6-3.4c0-2,0.9-3.1,2.8-3.1
			c0.6,0,1.2,0.2,1.7,0.5c0.5,0.3,1,0.6,1.4,1c0.5,0.4,1,0.8,1.6,1c0.7,0.3,1.5,0.5,2.2,0.4c1.6,0,2.4-0.6,2.4-1.8
			c0-0.4-0.1-0.7-0.4-1c-0.5-0.3-1.1-0.6-1.7-0.6l-2.6-0.5c-4.6-0.9-6.8-3.1-6.8-6.4c-0.1-2,0.9-3.8,2.5-4.9
			c3.8-2.2,8.3-2.3,12.2-0.4c1.7,0.9,2.6,2,2.6,3.4c0,0.6-0.2,1.2-0.6,1.6c-0.4,0.4-1,0.7-1.6,0.7c-0.6,0-1.1-0.1-1.6-0.4
			c-0.4-0.2-0.8-0.5-1.1-0.8c-0.4-0.4-0.8-0.7-1.3-0.8c-0.7-0.3-1.5-0.4-2.2-0.4c-0.6,0-1.2,0.1-1.7,0.5c-0.4,0.3-0.7,0.8-0.7,1.3
			c0,0.4,0.2,0.8,0.5,1c0.6,0.3,1.2,0.5,1.8,0.6l2.9,0.6c1.8,0.3,3.5,1,4.9,2.3c1.1,1.1,1.6,2.6,1.5,4.2c0.1,1.9-0.7,3.8-2.1,5.1
			C103.4,30.6,101,31.1,97.6,31.1z"/>
		<path id="Path_5" class="st0" d="M111.4,6.3c-1.1-1.1-1.1-3,0-4.1c0.5-0.5,1.3-0.8,2.1-0.9h1.7c1.6,0,2.9,1.3,2.9,2.9
			c0,1.6-1.3,2.9-2.9,2.9h-1.7C112.7,7.2,112,6.9,111.4,6.3z M110.9,27.3V13.2c0-1.9,1.6-3.5,3.5-3.5s3.5,1.6,3.5,3.5l0,0v14.1
			c0,1.9-1.6,3.5-3.5,3.5S110.9,29.2,110.9,27.3z"/>
		<path id="Path_6" class="st0" d="M120.5,12.4c0-0.6,0.2-1.2,0.7-1.7c0.4-0.4,1-0.7,1.6-0.7h1.3l0.1-2.8c0-0.8,0.4-1.6,1-2.1
			c1.3-1.2,3.3-1.2,4.5,0.1c0.6,0.6,0.9,1.4,0.9,2.2V10h2.2c1.3,0,2.3,1,2.3,2.3c0,0.6-0.2,1.2-0.7,1.6c-0.4,0.4-1,0.7-1.6,0.7h-2.1
			V23c0,0.6,0.1,1.1,0.4,1.6c0.2,0.3,0.4,0.6,0.7,0.8c0.3,0.2,0.6,0.3,0.9,0.4c0.7,0.2,1.4,0.5,2,0.9c0.4,0.3,0.7,0.8,0.7,1.4
			c0,0.6-0.1,1.1-0.4,1.6c-0.3,0.4-0.8,0.7-1.3,0.9c-0.5,0.2-1,0.3-1.6,0.3c-0.5,0-1.1,0.1-1.9,0.1c-2.4,0-4.1-0.6-5.1-1.8
			c-1-1.2-1.5-3-1.5-5.5l0-9h-1.1C121.6,14.7,120.6,13.6,120.5,12.4L120.5,12.4z"/>
		<path id="Path_7" class="st0" d="M137.6,20.3c-0.1-2.9,0.9-5.7,2.9-7.8c2-2.1,4.8-3.1,7.7-3c2.8-0.1,5.5,0.9,7.5,2.9
			c1.8,1.7,2.8,4,2.8,6.4c0.1,0.9-0.2,1.8-0.7,2.5c-0.6,0.6-1.5,0.9-2.4,0.8h-11.1c0.1,1.1,0.5,2.1,1.3,2.9c0.8,0.7,1.8,1.1,2.9,1.1
			c1.1,0,2.1-0.4,2.9-1.1c0.7-0.6,1.6-1,2.5-1.1c0.8,0,1.5,0.3,2,0.8c0.5,0.5,0.8,1.3,0.8,2c0,1-0.4,1.9-1.2,2.5
			c-0.8,0.7-1.8,1.2-2.9,1.4c-1.2,0.3-2.4,0.4-3.6,0.4c-3.5,0-6.3-1-8.4-2.9C138.6,26.1,137.5,23.3,137.6,20.3z M144.4,18h7.4
			c0-1-0.4-2.1-1.1-2.8c-1.4-1.4-3.7-1.4-5.1,0C144.8,16,144.4,17,144.4,18L144.4,18z"/>
	</g>
	<path id="Rectangle_1" class="st1" d="M239.3,26.4h24.2c10.4,0,18.8,8.4,18.8,18.8v24.2c0,10.4-8.4,18.8-18.8,18.8h-24.2
		c-10.4,0-18.8-8.4-18.8-18.8V45.2C220.4,34.8,228.9,26.4,239.3,26.4z"/>
	<g id="Group_2" transform="translate(233.143 42.943)">
		<path id="Path_8" class="st2" d="M-3.6,14.6c0-4.1,1.2-7.4,3.5-9.9c2.4-2.6,5.8-4,9.3-3.8c1.5,0,3,0.2,4.5,0.6
			c1.4,0.4,2.8,1,3.9,2c1.1,0.8,1.7,2,1.7,3.3c0,1.7-1.4,3.1-3.1,3.1c0,0,0,0,0,0c-0.5,0-1-0.1-1.5-0.4c-0.4-0.3-0.8-0.6-1.1-1
			c-0.3-0.4-0.6-0.8-0.9-1.1c-0.4-0.4-0.9-0.7-1.4-1C9,5.5,6.4,6.2,4.9,8.1c-1.1,1.4-1.6,3.4-1.6,6.2c0,2.8,0.5,5,1.6,6.4
			c1,1.3,2.5,2.1,4.2,2.1c0.8,0,1.5-0.1,2.2-0.4c0.5-0.3,1-0.6,1.4-1.1c0.3-0.4,0.7-0.8,1-1.3c0.3-0.4,0.7-0.8,1.1-1.1
			c0.5-0.3,1-0.5,1.6-0.4c0.8,0,1.7,0.3,2.3,0.9c0.6,0.6,1,1.4,0.9,2.3c0,1.4-0.6,2.6-1.7,3.5c-1.2,1-2.5,1.7-4,2.1
			c-1.5,0.4-3.2,0.7-4.8,0.7c-4.1,0-7.3-1.2-9.4-3.5C-2.5,22-3.6,18.8-3.6,14.6z"/>
		<path id="Path_9" class="st2" d="M21.9,22.1c0-0.9,0.2-1.9,0.6-2.7c0.4-0.7,0.9-1.3,1.5-1.8c0.7-0.5,1.5-0.8,2.3-1
			c0.8-0.2,1.7-0.4,2.6-0.5c0.8-0.1,1.7-0.1,2.7-0.1h2.3c0.1-0.9-0.1-1.7-0.5-2.5c-0.3-0.5-1-0.8-2.1-0.8c-1.1,0-2.2,0.4-3,1.1
			c-0.7,0.6-1.5,1-2.4,1.1c-0.7,0-1.4-0.2-2-0.7c-0.5-0.5-0.8-1.1-0.8-1.8c0-0.8,0.3-1.5,0.8-2C24.5,9.7,25.2,9.2,26,9
			c0.9-0.3,1.7-0.5,2.6-0.7c0.9-0.1,1.8-0.2,2.7-0.2c2.8,0,5,0.6,6.5,1.8c1.5,1.2,2.2,3.2,2.2,6v8.6c0,0.8-0.3,1.6-0.9,2.1
			c-0.5,0.6-1.3,0.9-2.1,0.9c-0.7,0-1.4-0.2-2-0.7c-0.5-0.5-0.9-1.1-1-1.8c-2.6,3.1-7.2,3.6-10.4,1.2C22.5,25.2,21.8,23.7,21.9,22.1
			z M28.1,21.7c0,0.6,0.2,1.1,0.6,1.5c0.5,0.4,1,0.6,1.6,0.5c1,0.1,2-0.4,2.6-1.1c0.6-0.8,1-1.8,0.9-2.8v-0.3h-2
			C29.4,19.4,28.1,20.2,28.1,21.7L28.1,21.7z"/>
	</g>
</g>
</svg>
