<svg width="170" height="170" viewBox="0 0 170 170" fill="none" xmlns="http://www.w3.org/2000/svg">
<path d="M85 170C131.944 170 170 131.944 170 85C170 38.0558 131.944 0 85 0C38.0558 0 0 38.0558 0 85C0 131.944 38.0558 170 85 170Z" fill="#FAD24D"/>
<path d="M85.0002 144.769C118.426 144.769 145.523 142.633 145.523 139.998C145.523 137.363 118.426 135.227 85.0002 135.227C51.5745 135.227 24.4775 137.363 24.4775 139.998C24.4775 142.633 51.5745 144.769 85.0002 144.769Z" fill="#EDB937"/>
<path d="M21.9082 22.3198H148.092C152.238 22.3198 155.629 25.7122 155.629 29.8579V107.588H14.3711V29.8579C14.3711 25.7122 17.7625 22.3198 21.9082 22.3198Z" fill="#666666"/>
<path d="M19.4883 102.47H150.51V29.857C150.51 28.5359 149.412 27.4375 148.091 27.4375H21.9068C20.5867 27.4375 19.4873 28.5359 19.4873 29.857V102.47L19.4883 102.47Z" fill="#15BDB2"/>
<path d="M155.629 107.588V115.831C155.629 119.978 151.89 123.369 147.32 123.369H22.6795C18.1091 123.369 14.3701 119.978 14.3701 115.831V107.588H155.628H155.629Z" fill="white"/>
<path d="M47.8637 77.7949H43.5928L42.862 72.9084H37.668L36.9372 77.7949H33.0508L37.3602 50.8608H43.5549L47.8644 77.7949H47.8637ZM38.2052 69.2527H42.2839L40.2452 55.6315L38.2052 69.2527Z" fill="white"/>
<path d="M56.0594 50.8607C58.1887 50.8607 59.7722 51.4251 60.8121 52.5537C61.851 53.6823 62.3703 55.3375 62.3703 57.5179V61.0188C62.3703 63.1996 61.8513 64.8535 60.8121 65.9824C59.7732 67.111 58.1887 67.6754 56.0594 67.6754H54.0589V77.7944H49.8262V50.8604H56.0594V50.8607ZM54.0589 54.7083V63.8275H56.0594C56.7264 63.8275 57.2394 63.6482 57.5984 63.2883C57.9573 62.9294 58.1366 62.2623 58.1366 61.2878V57.2476C58.1366 56.2731 57.9573 55.6061 57.5984 55.2472C57.2388 54.8882 56.7258 54.7089 56.0594 54.7089H54.0589V54.7083Z" fill="white"/>
<path d="M64.3311 50.8608H68.5638V77.7949H64.3311V50.8608Z" fill="white"/>
<path d="M122.035 68.5667L123.372 63.4737L120.348 62.2867C120.45 61.1451 120.443 59.9953 120.33 58.8535L123.342 57.6349L121.953 52.5565L118.744 53.0406C118.267 52.011 117.689 51.0182 117.009 50.0749L119.007 47.5153L115.264 43.8114L112.725 45.8372C111.775 45.1665 110.776 44.5977 109.743 44.1319L110.194 40.9181L105.101 39.582L103.914 42.6058C102.772 42.5039 101.622 42.5092 100.48 42.6241L99.2628 39.6116L94.1837 41.0008L94.6678 44.2092L94.6695 44.2086C93.6409 44.685 92.6471 45.2641 91.7038 45.9444L89.1442 43.9449L85.4404 47.6882L87.4661 50.227C86.7954 51.1769 86.2266 52.176 85.7608 53.2096L82.547 52.7587L81.2109 57.8517L84.2347 59.0387C84.1328 60.1803 84.1391 61.3301 84.253 62.4719L81.2405 63.6895L82.6297 68.7686L85.8371 68.2845C86.3143 69.3131 86.8926 70.3069 87.573 71.2502L85.5742 73.8098L89.3168 77.5136L91.8555 75.4879C92.8045 76.1586 93.8045 76.7274 94.8382 77.1932L94.3873 80.4059L99.4803 81.7427L100.667 78.7189C101.809 78.8208 102.959 78.8145 104.101 78.7006L105.319 81.7131L110.397 80.3239L109.913 77.1165C110.943 76.6394 111.936 76.061 112.879 75.3806L115.439 77.3795L119.143 73.6371L117.117 71.0984C117.787 70.1495 118.356 69.1494 118.822 68.1158L122.035 68.5667ZM108.189 66.4998C104.964 69.758 99.7101 69.7849 96.4522 66.5609C93.1939 63.3359 93.1667 58.0818 96.3911 54.8236C99.6161 51.5654 104.87 51.5385 108.128 54.7625C111.387 57.9875 111.413 63.2419 108.189 66.4998Z" fill="white"/>
<path d="M102.289 49.9446C96.3701 49.9446 91.5713 54.7424 91.5713 60.6622C91.5713 66.581 96.3695 71.3799 102.289 71.3799C108.208 71.3799 113.007 66.5817 113.007 60.6622C113.007 54.7434 108.209 49.9446 102.289 49.9446ZM108.189 66.5007C104.964 69.7589 99.7094 69.7858 96.4515 66.5617C93.1933 63.3371 93.166 58.0827 96.3904 54.8244C99.6154 51.5662 104.87 51.5393 108.128 54.7633C111.386 57.9884 111.413 63.2428 108.189 66.5007Z" fill="#ECF0F1"/>
<path d="M138.477 80.5142C138.509 79.9116 138.479 79.3026 138.382 78.6957L140.123 77.7039L138.145 73.5914L136.269 74.2647C135.859 73.8065 135.404 73.3998 134.916 73.0462L135.447 71.1134L131.14 69.604L130.289 71.4066C129.686 71.3741 129.077 71.4046 128.47 71.5012L127.479 69.7611L123.366 71.7396L124.04 73.6146C123.582 74.025 123.175 74.4796 122.821 74.968L120.888 74.4374L119.379 78.7442L121.182 79.5958C121.149 80.1975 121.179 80.8074 121.275 81.4134L119.534 82.4051L121.512 86.5177L123.388 85.8443C123.799 86.3015 124.254 86.7093 124.742 87.0629L124.212 88.9956L128.519 90.505L129.37 88.7015C129.971 88.7347 130.581 88.7041 131.188 88.6075L132.179 90.3487L136.292 88.3707L135.619 86.4958C136.077 86.0844 136.484 85.6298 136.837 85.1414L138.77 85.672L140.279 81.3652L138.477 80.5142ZM133.055 83.2468C131.293 85.0288 128.419 85.0425 126.637 83.28C124.857 81.517 124.842 78.6439 126.604 76.8622C128.367 75.0809 131.24 75.0666 133.022 76.829C134.803 78.5924 134.818 81.4648 133.055 83.2468Z" fill="white"/>
<path d="M129.829 73.5911C126.259 73.5911 123.365 76.485 123.365 80.055C123.365 83.625 126.259 86.519 129.829 86.519C133.399 86.519 136.293 83.625 136.293 80.055C136.293 76.485 133.399 73.5911 129.829 73.5911ZM133.055 83.2469C131.292 85.0282 128.418 85.0425 126.638 83.2801C124.856 81.5173 124.841 78.6439 126.604 76.8632V76.8622C128.367 75.0802 131.24 75.0656 133.021 76.829C134.803 78.5915 134.817 81.4649 133.055 83.2469Z" fill="#ECF0F1"/>
<path d="M84.9998 117.743C86.4327 117.743 87.5943 116.581 87.5943 115.148C87.5943 113.716 86.4327 112.554 84.9998 112.554C83.5669 112.554 82.4053 113.716 82.4053 115.148C82.4053 116.581 83.5669 117.743 84.9998 117.743Z" fill="#B6B6B8"/>
<path d="M101.291 135.227L113.276 139.066H56.7227L66.3924 135.227V123.369H101.29V135.227H101.291Z" fill="#C2C2C4"/>
<path d="M101.291 135.227L66.3936 123.369H101.291V135.227Z" fill="#B6B6B8"/>
<path d="M66.3931 135.227H101.291L113.276 139.066V140.72H84.9994H56.7227V139.066L66.3924 135.227H66.3931Z" fill="#ECF0F1"/>
</svg>
