<svg width="170" height="170" viewBox="0 0 170 170" fill="none" xmlns="http://www.w3.org/2000/svg">
<path d="M84.9993 169.999C131.943 169.999 169.999 131.943 169.999 84.9993C169.999 38.0555 131.943 0 84.9993 0C38.0555 0 0 38.0555 0 84.9993C0 131.943 38.0555 169.999 84.9993 169.999Z" fill="#3498DB"/>
<path d="M87.3507 84.7258C96.2585 84.7258 103.48 91.9471 103.48 100.855C103.48 109.763 96.2585 116.984 87.3507 116.984C78.4429 116.984 71.2217 109.763 71.2217 100.855C71.2217 91.9471 78.4433 84.7258 87.3507 84.7258Z" fill="white" stroke="#DDDDDD"/>
<path d="M40.2325 76.8521L40.0943 76.5757H39.7853H20.4688V75.542H39.7853H40.2853V75.042V58.7263H41.3196V92.8746V93.3746H41.8196H72.7483V94.4083H40.8026H40.2856V93.8913V77.0763V76.9583L40.2328 76.8527L40.2325 76.8521ZM133.672 76.5757H132.475L133.173 77.2817V93.8913V94.4083H132.656H102.386V93.3746H131.639H132.139V92.8746V58.7263H133.172V75.042V75.542H133.672H152.989V76.5757H133.672Z" fill="white" stroke="#DDDDDD"/>
<mask id="path-4-inside-1" fill="white">
<path d="M87.3503 86.8042C89.2509 86.8042 91.0654 87.1834 92.7222 87.8694C94.4442 88.5826 95.9911 89.6258 97.2853 90.92C98.5796 92.2136 99.6228 93.7612 100.336 95.4831C101.022 97.1396 101.401 98.9548 101.401 100.856C101.401 102.756 101.022 104.571 100.336 106.228C99.6228 107.95 98.5796 109.496 97.2853 110.791C95.9911 112.085 94.4442 113.129 92.7222 113.841C91.0657 114.527 89.2499 114.907 87.3503 114.907C85.4491 114.907 83.6343 114.527 81.9778 113.841C80.2559 113.128 78.7089 112.085 77.4147 110.791C76.1211 109.496 75.0772 107.95 74.364 106.228C73.678 104.571 73.2988 102.756 73.2988 100.856C73.2988 98.9545 73.678 97.1396 74.364 95.4831C75.0772 93.7612 76.1211 92.2136 77.4147 90.92C78.7089 89.6258 80.2559 88.5819 81.9778 87.8694C83.6343 87.1834 85.4491 86.8042 87.3503 86.8042ZM75.9335 106.237H79.9995C79.7206 105.503 79.5011 104.759 79.3414 104.009C79.1708 103.204 79.0679 102.39 79.0333 101.573H74.7521C74.7963 102.369 74.9162 103.148 75.1028 103.902C75.3043 104.716 75.5845 105.498 75.9335 106.238V106.237ZM81.5405 106.237H86.6328V101.573H80.4627C80.4992 102.343 80.6032 103.112 80.7752 103.875C80.9544 104.67 81.2101 105.46 81.5405 106.237ZM88.0675 106.237H93.1599C93.4899 105.46 93.7449 104.67 93.9239 103.875C94.0959 103.112 94.1998 102.343 94.2373 101.573H88.0672V106.237H88.0675ZM94.7008 106.237H98.7669C99.1162 105.498 99.3964 104.715 99.5976 103.902C99.7842 103.149 99.9034 102.369 99.9476 101.573H95.6664C95.6318 102.389 95.5289 103.203 95.3582 104.008C95.1985 104.758 94.9797 105.503 94.7008 106.237V106.237ZM97.9703 107.671H94.0726C93.8867 108.045 93.6831 108.416 93.4643 108.783C93.213 109.204 92.9381 109.621 92.6409 110.033C92.1276 110.746 91.5485 111.437 90.9067 112.101C90.5259 112.495 90.1221 112.88 89.6935 113.256C90.7633 113.056 91.7866 112.719 92.7432 112.266C94.0593 111.643 95.252 110.797 96.271 109.777H96.2723C96.6581 109.392 97.02 108.98 97.3531 108.548C97.5706 108.266 97.7767 107.973 97.971 107.672L97.9703 107.671ZM92.4556 107.671H88.0669V112.755C88.6599 112.277 89.2104 111.782 89.7154 111.273C90.3778 110.605 90.9665 109.911 91.4811 109.198C91.7089 108.882 91.9267 108.554 92.1349 108.216C92.2461 108.034 92.353 107.852 92.4546 107.671L92.4556 107.671ZM86.6322 107.671H82.2434C82.345 107.853 82.4522 108.035 82.5631 108.217C82.771 108.555 82.9891 108.883 83.2169 109.198C83.7322 109.912 84.3206 110.605 84.9826 111.274C85.4886 111.783 86.0375 112.278 86.6312 112.755V107.672L86.6322 107.671ZM80.6261 107.671H76.7294C76.9226 107.973 77.1291 108.266 77.3463 108.548C77.6793 108.98 78.0409 109.392 78.427 109.777H78.4284C79.4474 110.796 80.64 111.643 81.9562 112.266C82.9138 112.718 83.9371 113.055 85.0069 113.256C84.5789 112.88 84.1738 112.494 83.7936 112.1C83.1508 111.436 82.5724 110.745 82.0591 110.033C81.7613 109.621 81.4864 109.204 81.2357 108.783C81.0159 108.415 80.8133 108.045 80.6267 107.671L80.6261 107.671ZM76.729 94.0395H80.6948C80.8675 93.6955 81.0564 93.3512 81.2592 93.0088C81.4943 92.6121 81.7483 92.2206 82.0186 91.8355C82.5376 91.0974 83.1253 90.3795 83.7807 89.6869C84.1811 89.2632 84.6078 88.8488 85.0587 88.4451C83.9743 88.6437 82.938 88.9817 81.9685 89.4392C80.647 90.0627 79.45 90.9104 78.4274 91.9341C77.7892 92.5722 77.2181 93.2785 76.729 94.0395ZM82.3164 94.0395H86.6322V88.9773C86.0372 89.4684 85.4837 89.9811 84.9727 90.5097C84.3066 91.198 83.7113 91.9175 83.1903 92.6589C82.9778 92.9604 82.7786 93.2655 82.5923 93.5713C82.4981 93.7264 82.4064 93.8824 82.3181 94.0398L82.3164 94.0395ZM88.0665 94.0395H92.3816C92.2933 93.8821 92.2016 93.7264 92.1073 93.571C91.9214 93.2652 91.7215 92.9607 91.5093 92.6585C90.9874 91.9168 90.3931 91.1983 89.727 90.5093C89.216 89.9807 88.6619 89.4684 88.0675 88.977V94.0395H88.0665ZM94.0039 94.0395H97.9703C97.7764 93.738 97.5706 93.4458 97.3534 93.1639C97.0224 92.7343 96.6615 92.3229 96.2713 91.9341C95.2493 90.9098 94.0524 90.0627 92.7302 89.4392C91.7617 88.9817 90.7251 88.6437 89.6407 88.4451C90.0916 88.8485 90.5186 89.2629 90.9193 89.6869C91.5738 90.3795 92.1618 91.0977 92.6807 91.8355C92.9507 92.2206 93.205 92.6121 93.4401 93.0088C93.643 93.3515 93.8316 93.6948 94.0039 94.0395ZM98.7659 95.4742H94.6397C94.9243 96.208 95.1507 96.953 95.3191 97.7057C95.499 98.5109 95.6119 99.3241 95.6574 100.139H99.9476C99.9034 99.3413 99.7842 98.5624 99.5976 97.809C99.396 96.9959 99.1158 96.2136 98.7669 95.4745H98.7659V95.4742ZM93.0948 95.4742H88.0669V100.139H94.2267C94.1799 99.3735 94.0656 98.6079 93.8847 97.8459C93.6941 97.043 93.4308 96.2501 93.0948 95.4742ZM86.6322 95.4742H81.6042C81.2682 96.2501 81.0056 97.043 80.8153 97.8452C80.6344 98.6069 80.5195 99.3732 80.4733 100.138H86.6332V95.4738H86.6322V95.4742ZM80.0596 95.4742H75.9335C75.5842 96.2136 75.304 96.9955 75.1028 97.8087C74.9162 98.562 74.796 99.341 74.7521 100.138H79.0429C79.0884 99.3234 79.2003 98.5109 79.3813 97.7054C79.5496 96.9527 79.7761 96.2076 80.0606 95.4738H80.0596V95.4742Z"/>
</mask>
<path d="M87.3503 86.8042C89.2509 86.8042 91.0654 87.1834 92.7222 87.8694C94.4442 88.5826 95.9911 89.6258 97.2853 90.92C98.5796 92.2136 99.6228 93.7612 100.336 95.4831C101.022 97.1396 101.401 98.9548 101.401 100.856C101.401 102.756 101.022 104.571 100.336 106.228C99.6228 107.95 98.5796 109.496 97.2853 110.791C95.9911 112.085 94.4442 113.129 92.7222 113.841C91.0657 114.527 89.2499 114.907 87.3503 114.907C85.4491 114.907 83.6343 114.527 81.9778 113.841C80.2559 113.128 78.7089 112.085 77.4147 110.791C76.1211 109.496 75.0772 107.95 74.364 106.228C73.678 104.571 73.2988 102.756 73.2988 100.856C73.2988 98.9545 73.678 97.1396 74.364 95.4831C75.0772 93.7612 76.1211 92.2136 77.4147 90.92C78.7089 89.6258 80.2559 88.5819 81.9778 87.8694C83.6343 87.1834 85.4491 86.8042 87.3503 86.8042ZM75.9335 106.237H79.9995C79.7206 105.503 79.5011 104.759 79.3414 104.009C79.1708 103.204 79.0679 102.39 79.0333 101.573H74.7521C74.7963 102.369 74.9162 103.148 75.1028 103.902C75.3043 104.716 75.5845 105.498 75.9335 106.238V106.237ZM81.5405 106.237H86.6328V101.573H80.4627C80.4992 102.343 80.6032 103.112 80.7752 103.875C80.9544 104.67 81.2101 105.46 81.5405 106.237ZM88.0675 106.237H93.1599C93.4899 105.46 93.7449 104.67 93.9239 103.875C94.0959 103.112 94.1998 102.343 94.2373 101.573H88.0672V106.237H88.0675ZM94.7008 106.237H98.7669C99.1162 105.498 99.3964 104.715 99.5976 103.902C99.7842 103.149 99.9034 102.369 99.9476 101.573H95.6664C95.6318 102.389 95.5289 103.203 95.3582 104.008C95.1985 104.758 94.9797 105.503 94.7008 106.237V106.237ZM97.9703 107.671H94.0726C93.8867 108.045 93.6831 108.416 93.4643 108.783C93.213 109.204 92.9381 109.621 92.6409 110.033C92.1276 110.746 91.5485 111.437 90.9067 112.101C90.5259 112.495 90.1221 112.88 89.6935 113.256C90.7633 113.056 91.7866 112.719 92.7432 112.266C94.0593 111.643 95.252 110.797 96.271 109.777H96.2723C96.6581 109.392 97.02 108.98 97.3531 108.548C97.5706 108.266 97.7767 107.973 97.971 107.672L97.9703 107.671ZM92.4556 107.671H88.0669V112.755C88.6599 112.277 89.2104 111.782 89.7154 111.273C90.3778 110.605 90.9665 109.911 91.4811 109.198C91.7089 108.882 91.9267 108.554 92.1349 108.216C92.2461 108.034 92.353 107.852 92.4546 107.671L92.4556 107.671ZM86.6322 107.671H82.2434C82.345 107.853 82.4522 108.035 82.5631 108.217C82.771 108.555 82.9891 108.883 83.2169 109.198C83.7322 109.912 84.3206 110.605 84.9826 111.274C85.4886 111.783 86.0375 112.278 86.6312 112.755V107.672L86.6322 107.671ZM80.6261 107.671H76.7294C76.9226 107.973 77.1291 108.266 77.3463 108.548C77.6793 108.98 78.0409 109.392 78.427 109.777H78.4284C79.4474 110.796 80.64 111.643 81.9562 112.266C82.9138 112.718 83.9371 113.055 85.0069 113.256C84.5789 112.88 84.1738 112.494 83.7936 112.1C83.1508 111.436 82.5724 110.745 82.0591 110.033C81.7613 109.621 81.4864 109.204 81.2357 108.783C81.0159 108.415 80.8133 108.045 80.6267 107.671L80.6261 107.671ZM76.729 94.0395H80.6948C80.8675 93.6955 81.0564 93.3512 81.2592 93.0088C81.4943 92.6121 81.7483 92.2206 82.0186 91.8355C82.5376 91.0974 83.1253 90.3795 83.7807 89.6869C84.1811 89.2632 84.6078 88.8488 85.0587 88.4451C83.9743 88.6437 82.938 88.9817 81.9685 89.4392C80.647 90.0627 79.45 90.9104 78.4274 91.9341C77.7892 92.5722 77.2181 93.2785 76.729 94.0395ZM82.3164 94.0395H86.6322V88.9773C86.0372 89.4684 85.4837 89.9811 84.9727 90.5097C84.3066 91.198 83.7113 91.9175 83.1903 92.6589C82.9778 92.9604 82.7786 93.2655 82.5923 93.5713C82.4981 93.7264 82.4064 93.8824 82.3181 94.0398L82.3164 94.0395ZM88.0665 94.0395H92.3816C92.2933 93.8821 92.2016 93.7264 92.1073 93.571C91.9214 93.2652 91.7215 92.9607 91.5093 92.6585C90.9874 91.9168 90.3931 91.1983 89.727 90.5093C89.216 89.9807 88.6619 89.4684 88.0675 88.977V94.0395H88.0665ZM94.0039 94.0395H97.9703C97.7764 93.738 97.5706 93.4458 97.3534 93.1639C97.0224 92.7343 96.6615 92.3229 96.2713 91.9341C95.2493 90.9098 94.0524 90.0627 92.7302 89.4392C91.7617 88.9817 90.7251 88.6437 89.6407 88.4451C90.0916 88.8485 90.5186 89.2629 90.9193 89.6869C91.5738 90.3795 92.1618 91.0977 92.6807 91.8355C92.9507 92.2206 93.205 92.6121 93.4401 93.0088C93.643 93.3515 93.8316 93.6948 94.0039 94.0395ZM98.7659 95.4742H94.6397C94.9243 96.208 95.1507 96.953 95.3191 97.7057C95.499 98.5109 95.6119 99.3241 95.6574 100.139H99.9476C99.9034 99.3413 99.7842 98.5624 99.5976 97.809C99.396 96.9959 99.1158 96.2136 98.7669 95.4745H98.7659V95.4742ZM93.0948 95.4742H88.0669V100.139H94.2267C94.1799 99.3735 94.0656 98.6079 93.8847 97.8459C93.6941 97.043 93.4308 96.2501 93.0948 95.4742ZM86.6322 95.4742H81.6042C81.2682 96.2501 81.0056 97.043 80.8153 97.8452C80.6344 98.6069 80.5195 99.3732 80.4733 100.138H86.6332V95.4738H86.6322V95.4742ZM80.0596 95.4742H75.9335C75.5842 96.2136 75.304 96.9955 75.1028 97.8087C74.9162 98.562 74.796 99.341 74.7521 100.138H79.0429C79.0884 99.3234 79.2003 98.5109 79.3813 97.7054C79.5496 96.9527 79.7761 96.2076 80.0606 95.4738H80.0596V95.4742Z" fill="#0F7986" stroke="#DDDDDD" stroke-width="2" mask="url(#path-4-inside-1)"/>
<path d="M86.2108 67.939V67.439H85.7108H63.4213H62.9043V66.922V51.709H63.938V65.9053V66.4053H64.438H85.7108H86.2108V65.9053V45.3822V18.8237H87.2445V45.3822V53.1929V53.6929H87.7445H109.017H109.517V53.1929V38.9965H110.55V54.2095V54.7265H110.033H87.7445H87.2445V55.2265V84.6414H86.2108V67.939Z" fill="white" stroke="#DDDDDD"/>
<path d="M102.906 127.012L92.0492 142.299L91.8871 141.965L91.4906 143.103C91.2523 143.787 90.5511 144.679 89.6224 145.538C88.7064 146.385 87.637 147.139 86.7459 147.565L86.4488 147.707L86.4622 148.036L87.3299 169.463C86.5534 169.486 85.7768 169.5 84.9978 169.5C79.1053 169.5 73.3562 168.893 67.8048 167.745L68.5008 148.792L68.5114 148.503L68.2669 148.35C68.0048 148.186 67.719 147.939 67.4279 147.609C66.4079 146.455 65.4481 144.421 65.3558 141.999L65.3558 141.999L64.64 123.364L64.7141 122.818L64.7173 122.795L64.7182 122.772L64.8647 119.31C64.9222 117.95 66.0152 116.908 67.3401 116.908C68.6352 116.908 69.7224 118.065 69.6648 119.421L69.6648 119.421L69.5944 121.091L69.5716 121.632L70.1119 121.612L71.1581 121.575L71.6014 121.559L71.6384 121.117L71.912 117.847L71.912 117.847C72.0284 116.455 73.0816 115.424 74.3888 115.424C75.7018 115.424 76.8233 116.599 76.7141 117.916C76.7141 117.916 76.7141 117.917 76.7141 117.917L76.4717 120.826L76.4249 121.387L76.988 121.367L77.8606 121.335L78.3117 121.319L78.3415 120.869L78.6399 116.355C78.7327 114.964 79.811 113.907 81.1034 113.941C82.431 113.976 83.529 115.119 83.4414 116.442L83.1661 120.595L83.1295 121.147L83.6827 121.127L84.4533 121.1L84.9243 121.084L84.9355 120.612L85.3589 102.798C85.3589 102.797 85.3589 102.797 85.3589 102.797C85.3914 101.451 86.5014 100.405 87.834 100.405C89.1202 100.405 90.1887 101.552 90.1584 102.928L90.1584 102.928L89.93 113.317L89.9299 113.319L89.668 123.622L89.6671 123.657L89.671 123.692L90.2106 128.427L90.2154 128.47L90.2273 128.51L90.7831 130.42L91 131.165L91.5888 130.659L99.029 124.273L99.029 124.273C99.5891 123.793 100.193 123.448 100.773 123.321C101.32 123.201 101.849 123.271 102.34 123.618L102.382 123.648C103.427 124.421 103.669 125.938 102.906 127.012L103.314 127.301L102.906 127.012Z" fill="#FED298" stroke="#DDDDDD"/>
<path d="M66.6307 158.732L89.0178 158.995L89.3802 169.383C87.9286 169.458 86.4684 169.5 84.9996 169.5C78.4627 169.5 72.1012 168.755 65.9922 167.35L66.6307 158.732Z" fill="#FF5B62" stroke="#DDDDDD"/>
<path d="M88.3109 158.073L67.3999 157.721L67.4162 154.396L88.3273 154.748L88.3109 158.073Z" fill="white" stroke="#DDDDDD"/>
<path d="M86.4103 102.482L86.4112 102.458L86.4097 102.433C86.3916 102.14 86.515 101.931 86.7536 101.774C87.0127 101.602 87.4029 101.502 87.8297 101.511C88.2553 101.52 88.654 101.637 88.9264 101.827C89.1837 102.006 89.3187 102.237 89.3077 102.54L89.3077 102.54L89.2335 104.598L86.3371 104.528L86.4103 102.482ZM100.608 124.431L100.608 124.431C100.819 124.218 101.073 124.159 101.368 124.219C101.681 124.283 102.028 124.485 102.32 124.783C102.612 125.081 102.81 125.435 102.871 125.757C102.929 126.062 102.866 126.326 102.649 126.543C102.649 126.543 102.649 126.543 102.649 126.543L100.846 128.353L98.795 126.251L100.608 124.431Z" fill="white" stroke="#DDDDDD"/>
<path d="M86.728 10.426C89.4451 10.426 91.6474 12.6289 91.6474 15.3454C91.6474 18.0626 89.4444 20.2658 86.728 20.2658C84.0109 20.2658 81.8076 18.0628 81.8076 15.3454C81.8076 12.6291 84.0108 10.426 86.728 10.426Z" fill="white" stroke="#DDDDDD"/>
<path d="M111.051 33.5752C113.768 33.5752 115.971 35.7781 115.971 38.4956C115.971 41.212 113.768 43.415 111.051 43.415C108.334 43.415 106.132 41.2121 106.132 38.4956C106.132 35.7781 108.335 33.5752 111.051 33.5752Z" fill="#FAD24D" stroke="#DDDDDD"/>
<path d="M64.44 44.042C68.3965 44.042 71.6049 47.2503 71.6049 51.2076C71.6049 55.1641 68.3966 58.3718 64.44 58.3718C60.4833 58.3718 57.2744 55.1634 57.2744 51.2076C57.2744 47.2497 60.4824 44.042 64.44 44.042Z" fill="#FF5B62" stroke="#DDDDDD"/>
<path d="M40.802 54.8938C42.6425 54.8938 44.1336 56.3858 44.1336 58.2254C44.1336 60.0661 42.6421 61.5577 40.802 61.5577C38.9618 61.5577 37.4697 60.0656 37.4697 58.2254C37.4697 56.3853 38.9614 54.8938 40.802 54.8938Z" fill="#21D0C3" stroke="#DDDDDD"/>
<path d="M20.0126 68.7185C23.9701 68.7185 27.1781 71.9268 27.1781 75.8841C27.1781 79.8406 23.9698 83.049 20.0126 83.049C16.056 83.049 12.8477 79.8407 12.8477 75.8841C12.8477 71.9265 16.0554 68.7185 20.0126 68.7185Z" fill="#FAD24D" stroke="#DDDDDD"/>
<path d="M150.202 75.8838V75.8837C150.202 74.0436 151.694 72.5515 153.534 72.5515C155.375 72.5515 156.866 74.0435 156.866 75.8838C156.866 77.7234 155.375 79.2154 153.534 79.2154C151.693 79.2154 150.202 77.7234 150.202 75.8838Z" fill="#FF5B62" stroke="#DDDDDD"/>
<path d="M132.655 51.0608C136.612 51.0608 139.821 54.2692 139.821 58.2264C139.821 62.1839 136.613 65.3913 132.655 65.3913C128.699 65.3913 125.491 62.184 125.491 58.2264C125.491 54.2687 128.699 51.0608 132.655 51.0608Z" fill="#21D0C3" stroke="#DDDDDD"/>
</svg>
