<svg width="170" height="170" viewBox="0 0 170 170" fill="none" xmlns="http://www.w3.org/2000/svg">
<path d="M85 170C131.944 170 170 131.944 170 85C170 38.0558 131.944 0 85 0C38.0558 0 0 38.0558 0 85C0 131.944 38.0558 170 85 170Z" fill="#1ABC9C"/>
<mask id="path-2-inside-1" fill="white">
<path d="M84.9999 19.3518C68.0018 34.0446 48.9823 41.8311 27.1605 40.0726C25.9751 88.9382 38.4585 143.728 84.9999 150.65C131.542 143.729 144.025 88.9382 142.84 40.0726C121.018 41.8307 101.999 34.0439 84.9999 19.3518Z"/>
</mask>
<path d="M84.9999 19.3518C68.0018 34.0446 48.9823 41.8311 27.1605 40.0726C25.9751 88.9382 38.4585 143.728 84.9999 150.65C131.542 143.729 144.025 88.9382 142.84 40.0726C121.018 41.8307 101.999 34.0439 84.9999 19.3518Z" fill="white" stroke="#DDDDDD" stroke-width="2" mask="url(#path-2-inside-1)"/>
<mask id="path-3-inside-2" fill="white">
<path d="M33.2012 46.7338C33.2931 85.386 42.6844 137.197 84.9996 144.163C127.315 137.198 136.706 85.386 136.798 46.7338C117.554 46.7331 100.395 39.707 84.9996 27.5217C69.6046 39.7073 52.4454 46.7331 33.2012 46.7338Z"/>
</mask>
<path d="M33.2012 46.7338C33.2931 85.386 42.6844 137.197 84.9996 144.163C127.315 137.198 136.706 85.386 136.798 46.7338C117.554 46.7331 100.395 39.707 84.9996 27.5217C69.6046 39.7073 52.4454 46.7331 33.2012 46.7338Z" fill="#21D0C3" stroke="#DDDDDD" stroke-width="2" mask="url(#path-3-inside-2)"/>
<mask id="path-4-inside-3" fill="white">
<path d="M133.105 85.8423H85V27.5217C100.395 39.707 117.555 46.7331 136.798 46.7338C136.769 59.0598 135.791 72.722 133.105 85.8423H133.105Z"/>
</mask>
<path d="M133.105 85.8423H85V27.5217C100.395 39.707 117.555 46.7331 136.798 46.7338C136.769 59.0598 135.791 72.722 133.105 85.8423H133.105Z" fill="#FF5B62" stroke="#DDDDDD" stroke-width="2" mask="url(#path-4-inside-3)"/>
<mask id="path-5-inside-4" fill="white">
<path d="M36.8955 85.8423H84.9997V144.163C56.1783 139.419 42.6344 113.868 36.8955 85.8423Z"/>
</mask>
<path d="M36.8955 85.8423H84.9997V144.163C56.1783 139.419 42.6344 113.868 36.8955 85.8423Z" fill="#FF5B62" stroke="#DDDDDD" stroke-width="2" mask="url(#path-5-inside-4)"/>
<mask id="path-6-inside-5" fill="white">
<path d="M85.0002 112.432C100.15 112.432 112.432 100.15 112.432 85C112.432 69.8498 100.15 57.5681 85.0002 57.5681C69.85 57.5681 57.5684 69.8498 57.5684 85C57.5684 100.15 69.85 112.432 85.0002 112.432Z"/>
</mask>
<path d="M85.0002 112.432C100.15 112.432 112.432 100.15 112.432 85C112.432 69.8498 100.15 57.5681 85.0002 57.5681C69.85 57.5681 57.5684 69.8498 57.5684 85C57.5684 100.15 69.85 112.432 85.0002 112.432Z" fill="#FAD24D" stroke="#DDDDDD" stroke-width="2" mask="url(#path-6-inside-5)"/>
<mask id="path-7-inside-6" fill="white">
<path d="M85.0008 56.7937C92.7892 56.7937 99.8416 59.951 104.945 65.055C110.049 70.159 113.207 77.211 113.207 84.9995C113.207 92.7887 110.049 99.8404 104.945 104.944C99.8413 110.048 92.7892 113.206 85.0008 113.206C77.2116 113.206 70.1599 110.049 65.0562 104.945C59.9526 99.8407 56.7949 92.7894 56.7949 85.0002C56.7949 77.2117 59.9522 70.1593 65.0562 65.0557C70.1602 59.952 77.2116 56.7937 85.0008 56.7937ZM58.2383 84.293H68.7222C68.8042 80.1887 69.6569 76.1011 71.2815 72.3089C67.9927 71.7139 65.1064 70.8828 62.9462 69.8177C60.0957 73.9512 58.3764 78.9253 58.2376 84.2933H58.2383V84.293ZM70.1516 84.293H84.2846V73.4368C80.2925 73.404 76.3168 73.1081 72.7345 72.5523C71.0966 76.2548 70.2346 80.2651 70.1516 84.293ZM85.7176 84.293H99.8506C99.7669 80.2687 98.9079 76.2628 97.272 72.5636C93.6937 73.1171 89.7156 73.4083 85.7176 73.4378V84.293ZM101.279 84.293H111.763C111.623 78.927 109.906 73.9538 107.056 69.821C104.907 70.8921 102.02 71.7245 98.7233 72.3202C100.345 76.1097 101.197 80.1927 101.279 84.293ZM111.763 85.7274H101.276C101.186 89.5132 100.44 93.2867 99.0378 96.8289C102.437 97.4634 105.384 98.3552 107.507 99.5044C110.083 95.515 111.627 90.7968 111.763 85.7274ZM99.8466 85.7274H85.7173V95.6541C89.8361 95.6843 93.9334 95.9925 97.5961 96.5795C99.0032 93.1254 99.7533 89.4328 99.8466 85.728V85.7274ZM84.2832 85.7274H70.1539C70.2469 89.4368 70.9979 93.133 72.4088 96.5901C76.0741 96.0008 80.1703 95.689 84.2832 95.6548V85.7274ZM68.7252 85.7274H58.2383C58.3727 90.7985 59.9184 95.5167 62.4953 99.5067C64.6312 98.3638 67.5767 97.4753 70.9677 96.8405C69.5629 93.295 68.8155 89.5175 68.7252 85.727V85.7274ZM63.8035 68.6439C65.9039 69.641 68.7039 70.4163 71.8934 70.9695C72.0963 70.5505 72.3095 70.1364 72.5326 69.727C75.0215 65.153 78.7243 61.148 83.6427 58.2613C76.7896 58.6033 70.6154 61.5222 66.0686 66.068C65.2598 66.8769 64.5034 67.7372 63.8028 68.6436L63.8035 68.6439ZM73.371 71.2062C76.7597 71.7056 80.5087 71.9716 84.2836 72.0018V59.5453C79.6408 62.2915 76.1415 66.084 73.7877 70.41C73.6439 70.674 73.5058 70.9393 73.371 71.2062ZM85.7176 72.0031C89.4968 71.9752 93.2488 71.7126 96.6352 71.2155C96.499 70.9456 96.3586 70.6773 96.2135 70.411C93.86 66.085 90.3608 62.2922 85.7176 59.5463V72.0031ZM98.1117 70.9788C101.309 70.4253 104.108 69.6473 106.197 68.6443C105.497 67.7378 104.74 66.8769 103.932 66.068C99.3854 61.5218 93.2109 58.6036 86.3581 58.2613C91.2762 61.148 94.979 65.153 97.4683 69.7264C97.6927 70.1394 97.9075 70.5565 98.1117 70.9788ZM106.691 100.694C104.633 99.6096 101.773 98.7693 98.468 98.1743C98.1751 98.8237 97.8597 99.4642 97.5207 100.095C95.0301 104.728 91.3041 108.798 86.3435 111.738C93.2026 111.399 99.3818 108.481 103.932 103.931C104.935 102.928 105.858 101.846 106.692 100.694H106.691ZM97.0054 97.9302C93.523 97.3963 89.6346 97.1154 85.717 97.0862V110.447C90.389 107.65 93.9045 103.798 96.2603 99.4147C96.523 98.9256 96.7713 98.4303 97.0057 97.9296V97.9302H97.0054ZM84.2832 97.0869C80.3702 97.1191 76.4845 97.4039 72.9991 97.9388C73.2322 98.4366 73.4786 98.9293 73.7402 99.4154C76.096 103.798 79.6105 107.65 84.2836 110.447V97.0875L84.2832 97.0869ZM71.5362 98.1826C68.2381 98.7776 65.378 99.6139 63.3067 100.691C64.1411 101.843 65.0652 102.926 66.0683 103.929C70.6174 108.479 76.7976 111.398 83.6564 111.737C78.6958 108.796 74.9694 104.727 72.4782 100.093C72.1415 99.4669 71.8267 98.829 71.5355 98.1826H71.5362Z"/>
</mask>
<path d="M85.0008 56.7937C92.7892 56.7937 99.8416 59.951 104.945 65.055C110.049 70.159 113.207 77.211 113.207 84.9995C113.207 92.7887 110.049 99.8404 104.945 104.944C99.8413 110.048 92.7892 113.206 85.0008 113.206C77.2116 113.206 70.1599 110.049 65.0562 104.945C59.9526 99.8407 56.7949 92.7894 56.7949 85.0002C56.7949 77.2117 59.9522 70.1593 65.0562 65.0557C70.1602 59.952 77.2116 56.7937 85.0008 56.7937ZM58.2383 84.293H68.7222C68.8042 80.1887 69.6569 76.1011 71.2815 72.3089C67.9927 71.7139 65.1064 70.8828 62.9462 69.8177C60.0957 73.9512 58.3764 78.9253 58.2376 84.2933H58.2383V84.293ZM70.1516 84.293H84.2846V73.4368C80.2925 73.404 76.3168 73.1081 72.7345 72.5523C71.0966 76.2548 70.2346 80.2651 70.1516 84.293ZM85.7176 84.293H99.8506C99.7669 80.2687 98.9079 76.2628 97.272 72.5636C93.6937 73.1171 89.7156 73.4083 85.7176 73.4378V84.293ZM101.279 84.293H111.763C111.623 78.927 109.906 73.9538 107.056 69.821C104.907 70.8921 102.02 71.7245 98.7233 72.3202C100.345 76.1097 101.197 80.1927 101.279 84.293ZM111.763 85.7274H101.276C101.186 89.5132 100.44 93.2867 99.0378 96.8289C102.437 97.4634 105.384 98.3552 107.507 99.5044C110.083 95.515 111.627 90.7968 111.763 85.7274ZM99.8466 85.7274H85.7173V95.6541C89.8361 95.6843 93.9334 95.9925 97.5961 96.5795C99.0032 93.1254 99.7533 89.4328 99.8466 85.728V85.7274ZM84.2832 85.7274H70.1539C70.2469 89.4368 70.9979 93.133 72.4088 96.5901C76.0741 96.0008 80.1703 95.689 84.2832 95.6548V85.7274ZM68.7252 85.7274H58.2383C58.3727 90.7985 59.9184 95.5167 62.4953 99.5067C64.6312 98.3638 67.5767 97.4753 70.9677 96.8405C69.5629 93.295 68.8155 89.5175 68.7252 85.727V85.7274ZM63.8035 68.6439C65.9039 69.641 68.7039 70.4163 71.8934 70.9695C72.0963 70.5505 72.3095 70.1364 72.5326 69.727C75.0215 65.153 78.7243 61.148 83.6427 58.2613C76.7896 58.6033 70.6154 61.5222 66.0686 66.068C65.2598 66.8769 64.5034 67.7372 63.8028 68.6436L63.8035 68.6439ZM73.371 71.2062C76.7597 71.7056 80.5087 71.9716 84.2836 72.0018V59.5453C79.6408 62.2915 76.1415 66.084 73.7877 70.41C73.6439 70.674 73.5058 70.9393 73.371 71.2062ZM85.7176 72.0031C89.4968 71.9752 93.2488 71.7126 96.6352 71.2155C96.499 70.9456 96.3586 70.6773 96.2135 70.411C93.86 66.085 90.3608 62.2922 85.7176 59.5463V72.0031ZM98.1117 70.9788C101.309 70.4253 104.108 69.6473 106.197 68.6443C105.497 67.7378 104.74 66.8769 103.932 66.068C99.3854 61.5218 93.2109 58.6036 86.3581 58.2613C91.2762 61.148 94.979 65.153 97.4683 69.7264C97.6927 70.1394 97.9075 70.5565 98.1117 70.9788ZM106.691 100.694C104.633 99.6096 101.773 98.7693 98.468 98.1743C98.1751 98.8237 97.8597 99.4642 97.5207 100.095C95.0301 104.728 91.3041 108.798 86.3435 111.738C93.2026 111.399 99.3818 108.481 103.932 103.931C104.935 102.928 105.858 101.846 106.692 100.694H106.691ZM97.0054 97.9302C93.523 97.3963 89.6346 97.1154 85.717 97.0862V110.447C90.389 107.65 93.9045 103.798 96.2603 99.4147C96.523 98.9256 96.7713 98.4303 97.0057 97.9296V97.9302H97.0054ZM84.2832 97.0869C80.3702 97.1191 76.4845 97.4039 72.9991 97.9388C73.2322 98.4366 73.4786 98.9293 73.7402 99.4154C76.096 103.798 79.6105 107.65 84.2836 110.447V97.0875L84.2832 97.0869ZM71.5362 98.1826C68.2381 98.7776 65.378 99.6139 63.3067 100.691C64.1411 101.843 65.0652 102.926 66.0683 103.929C70.6174 108.479 76.7976 111.398 83.6564 111.737C78.6958 108.796 74.9694 104.727 72.4782 100.093C72.1415 99.4669 71.8267 98.829 71.5355 98.1826H71.5362Z" fill="white" stroke="#DDDDDD" stroke-width="2" mask="url(#path-7-inside-6)"/>
</svg>
