<?xml version="1.0" encoding="UTF-8"?><svg id="a" xmlns="http://www.w3.org/2000/svg" viewBox="0 0 3142.6 779.52"><defs><style>.b{fill:#141414;}.c{fill:#87c94c;}</style></defs><g><path class="b" d="M1080.66,19.01c11.55,0,21.77,4.4,19.6,18.19-2.09,13.12-11.78,16.85-24.67,16.85h-9.02l-2.68,17.14h-11.18l8.27-52.18h19.68Zm-.52,9.84h-9.54l-2.46,15.35h9.09c6.11,0,10.81-1.86,11.78-7.83,1.04-6.34-3.95-7.53-8.87-7.53Z"/><path class="b" d="M1115.99,72.23c-11.33,0-16.47-9.47-14.83-19.6,1.49-9.39,8.8-18.26,19.9-18.26,6.56,0,10.44,3.5,12.3,7.01l.97-5.96h9.09l-5.67,35.78h-9.09l.82-5.29c-2.76,3.5-7.16,6.34-13.49,6.34Zm2.91-8.72c4.85,0,8.72-3.06,10.73-6.26l1.42-8.35c-.82-3.21-3.73-5.81-7.98-5.81-6.19,0-10.66,4.55-11.63,10.43-.82,5.29,1.79,9.99,7.45,9.99Z"/><path class="b" d="M1175.92,34.74l-1.57,9.99c-6.19-1.34-11.63,1.27-14.46,5.81l-3.21,20.65h-10.36l5.67-35.78h9.17l-.82,5.22c2.98-4.17,8.05-6.63,15.58-5.89Z"/><path class="b" d="M1190.83,72.23c-11.33,0-16.47-9.47-14.83-19.6,1.49-9.39,8.79-18.26,19.9-18.26,6.56,0,10.44,3.5,12.3,7.01l.97-5.96h9.09l-5.67,35.78h-9.09l.82-5.29c-2.76,3.5-7.16,6.34-13.49,6.34Zm2.91-8.72c4.84,0,8.72-3.06,10.73-6.26l1.42-8.35c-.82-3.21-3.73-5.81-7.98-5.81-6.19,0-10.66,4.55-11.63,10.43-.82,5.29,1.79,9.99,7.45,9.99Z"/><path class="b" d="M1244.79,34.29c4.32,0,8.12,1.04,11.33,3.06l-1.42,8.57c-2.39-1.79-5.44-2.61-8.8-2.61-5.96,0-12.22,2.83-13.42,10.29-.97,6.78,3.65,9.69,9.47,9.69,3.88,0,7.53-1.04,10.88-2.68l-1.49,9.32c-3.65,1.57-7.45,2.31-11.93,2.31-10.14,0-19.45-6.04-17.29-19.46,2.09-13.42,13.49-18.49,22.66-18.49Z"/><path class="b" d="M1276.03,72.23c-10.51,0-19.16-7.01-17.14-19.83,1.94-12.15,12.15-18.04,22.29-18.04s19.08,7.01,17,19.83c-1.86,12.15-12.52,18.04-22.14,18.04Zm.82-9.24c5.89,0,10.06-4.03,11.03-9.84,.75-5.22-1.64-9.54-7.53-9.54s-10.21,4.02-11.18,9.84c-.75,5.22,1.64,9.54,7.68,9.54Z"/><path class="b" d="M1302.26,71.19l5.67-35.78h10.36l-5.67,35.78h-10.36Zm12.22-41.67c-3.43,0-6.19-2.16-5.52-6.56,.6-3.73,3.43-5.29,6.49-5.29,3.5,0,6.19,2.24,5.52,6.56-.6,3.73-3.43,5.29-6.49,5.29Z"/><path class="b" d="M1348.55,34.36c8.95,0,13.27,6.71,12,14.83l-3.5,21.99h-10.36l3.35-21.09c.75-4.84-1.64-6.78-5.29-6.78-3.88,0-7.38,2.61-9.39,4.77l-3.58,23.11h-10.36l5.67-35.78h9.09l-.75,4.62c3.73-3.5,8.5-5.67,13.12-5.67Z"/></g><path class="c" d="M1013.28,0h-15.97C985.66,0,975.68,8.37,973.66,19.85h27.71l-4.61-.12h7.87c.5,0,1.03,.01,1.56,.03l1.66-9.59,20.99,19.21-27.8,20.12,1.83-10.58h-32.57l-8.03,45.62h8.81c8.26,0,15.32-5.93,16.75-14.06l2.15-12.25h13.97c24.31,0,34.05-11.51,37.26-29.71C1044.28,11.16,1037.59,0,1013.28,0Z"/></svg>